<svg width="512" height="512" viewBox="0 0 512 512" fill="none" xmlns="http://www.w3.org/2000/svg">
<path d="M250 99.4999C179 99.4999 136 147 125.111 229L125.111 381C125.111 411.698 106.417 434.171 117.525 452.621C120.728 457.941 128.257 456.786 133.491 453.444C149.957 442.932 178.786 441.486 198.159 455.244C204.559 459.789 214.508 459.765 220.362 454.537C237.027 439.654 259.126 436.578 275.891 449.001C282.198 453.674 292.08 453.706 298.474 449.153C316.691 436.181 342.258 439.787 359.961 455.893C365.386 460.829 374.318 461.141 380.915 457.935C398.853 449.218 416.107 461.141 405.281 438.122C404.787 437.071 404.417 435.914 404.254 434.765L370.754 198.83C369.92 192.955 368.587 187.127 366.609 181.532C343.788 116.985 318.112 99.4999 250 99.4999Z" fill="#F4F4F6"/>
<path d="M198 214C206.667 212.667 215.333 212.667 224 214" stroke="#111111" stroke-width="6" stroke-linecap="round"/>
<path d="M274 214C282.667 212.667 291.333 212.667 300 214" stroke="#111111" stroke-width="6" stroke-linecap="round"/>
<path d="M256 264C259.314 264 262 259.971 262 255C262 250.029 259.314 246 256 246C252.686 246 250 250.029 250 255C250 259.971 252.686 264 256 264Z" fill="#111111"/>
</svg>
